<svg xmlns="http://www.w3.org/2000/svg" xmlns:xlink="http://www.w3.org/1999/xlink" width="295" height="444" viewBox="0 0 295 444"><defs><clipPath id="a"><rect width="24" height="295" fill="none"/></clipPath></defs><g transform="translate(1615 -2901) rotate(90)"><g transform="translate(3101 1323) rotate(90)" fill="none" stroke-linecap="round" stroke-linejoin="round"><path d="M144,0,288,200H0Z" stroke="none"/><path d="M 144 41.07443237304688 L 46.85359191894531 176 L 241.1464080810547 176 L 144 41.07443237304688 M 144 0 L 288 200 L 0 200 L 144 0 Z" stroke="none" fill="#212121"/></g><path d="M144,0,288,200H0Z" transform="translate(3145 1611) rotate(-90)" fill="#212121"/><g transform="translate(3111 1320)" clip-path="url(#a)"><g transform="translate(-3101 -1308)"><rect width="24" height="24" transform="translate(3101 1308)" fill="#424242"/></g><g transform="translate(-3101 -1264)"><rect width="24" height="24" transform="translate(3101 1308)" fill="#424242"/></g><g transform="translate(-3101 -1220)"><rect width="24" height="24" transform="translate(3101 1308)" fill="#424242"/></g><g transform="translate(-3101 -1176)"><rect width="24" height="24" transform="translate(3101 1308)" fill="#424242"/></g><g transform="translate(-3101 -1132)"><rect width="24" height="24" transform="translate(3101 1308)" fill="#424242"/></g><g transform="translate(-3101 -1088)"><rect width="24" height="24" transform="translate(3101 1308)" fill="#424242"/></g><g transform="translate(-3101 -1044)"><rect width="24" height="24" transform="translate(3101 1308)" fill="#424242"/></g></g></g></svg>